<svg clip-rule="evenodd" fill-rule="evenodd" height="512" image-rendering="optimizeQuality" shape-rendering="geometricPrecision" text-rendering="geometricPrecision" viewBox="0 0 43.3492 43.3492" width="512" xmlns="http://www.w3.org/2000/svg"><g id="Layer_x0020_1"><g id="_307631632"><path id="_307632832" d="m21.6742 22.1818c-.1321 0-.2584-.0555-.3481-.1532l-6.615-7.208c-.1775-.1926-.1648-.4918.0285-.6686.1923-.1767.4919-.1637.6684.0287l6.2662 6.828 6.2671-6.8281c.1765-.1924.4761-.2052.6683-.0286.1924.1768.2061.4761.0286.6687l-6.615 7.2078c-.0897.0978-.216.1533-.349.1533zm-15.6467 13.8234c-.0089 0-.0177-.0002-.0276-.0007-.2602-.015-.4594-.2387-.4446-.4996.005-.0955.5136-9.6183-2.44-16.2751-.1054-.2391.002-.5186.2405-.6245.1371-.0604.2859-.0513.4092.0118-.0384-.1423-.0109-.3005.0897-.4236.1657-.2025.4633-.2329.6654-.0677l5.8689 4.784 2.2241-8.055c.07-.2519.3302-.3996.5826-.3301.2514.0695.3993.3301.3303.582l-2.4183 8.7542c-.0424.1542-.1598.2763-.3126.3249-.1518.0485-.3184.017-.4426-.0841l-6.3302-5.1609c3.001 6.8612 2.5001 16.2216 2.4775 16.6185-.0148.2516-.2229.446-.4723.4459zm31.2942 0c-.2494 0-.4585-.1942-.4723-.4459-.0226-.397-.5234-9.7573 2.4775-16.6184l-6.3301 5.1608c-.1242.101-.2909.1326-.4427.0841-.1528-.0487-.2702-.1707-.3126-.3248l-2.4183-8.7543c-.069-.2519.0789-.5124.3303-.582.2524-.0698.5126.0781.5826.3301l2.2242 8.055 5.8688-4.784c.2021-.1653.4998-.1347.6654.0677.1006.123.1282.2813.0897.4236.1232-.0631.2721-.0722.4082-.0118.2395.1059.347.3855.2415.6245-2.9536 6.6567-2.4449 16.1797-2.44 16.2751.0148.2609-.1843.4846-.4446.4996-.0099.0004-.0187.0008-.0276.0007z"/><path id="_307632760" d="m25.796 17.691c-.2011 0-.3874-.1294-.4516-.3316l-2.7505-8.7651c-.0788-.2493.0601-.5149.3096-.5932.2494-.0783.5146.0605.5925.3098l2.7516 8.765c.0789.2493-.0602.515-.3097.5933-.0472.0147-.0946.0219-.1419.0218zm-8.2428 0c-.0472 0-.0946-.007-.142-.0218-.2494-.0784-.3884-.3439-.3095-.5932l2.7505-8.7652c.0789-.2494.3441-.388.5935-.3097.2495.0783.3884.3439.3096.5932l-2.7506 8.7651c-.064.2022-.2504.3317-.4515.3316z"/><path id="_307632616" d="m21.6742 3.1579c-1.4187 0-2.5732 1.1543-2.5732 2.5733.0001 1.4187 1.1544 2.5733 2.5731 2.5733 1.4197-.0001 2.5741-1.1545 2.5741-2.5733.0001-1.419-1.1545-2.5733-2.574-2.5733zm0 6.0929c-1.9402 0-3.5196-1.5789-3.5196-3.5196.0001-1.9408 1.5793-3.5198 3.5195-3.5198 1.9412 0 3.5205 1.579 3.5205 3.5198 0 1.9407-1.5793 3.5196-3.5204 3.5196z"/><path id="_307632568" d="m29.7177 11.3068c-.904 0-1.6385.7351-1.6385 1.6384.0001.9032.7345 1.6382 1.6385 1.6382.9032 0 1.6375-.7349 1.6375-1.6382.0001-.9034-.7344-1.6383-1.6375-1.6384zm0 4.223c-1.4255 0-2.5849-1.1594-2.5849-2.5846.0001-1.4253 1.1594-2.5847 2.5849-2.5847 1.4247-.0001 2.584 1.1595 2.584 2.5847s-1.1594 2.5846-2.584 2.5846z"/><path id="_307632256" d="m40.7643 15.52c-.904 0-1.6385.735-1.6385 1.6384 0 .9032.7345 1.6383 1.6385 1.6383.9031-.0001 1.6385-.735 1.6385-1.6383.0001-.9034-.7354-1.6383-1.6385-1.6384zm0 4.223c-1.4255 0-2.5849-1.1594-2.5849-2.5846.0001-1.4253 1.1593-2.5847 2.5849-2.5847 1.4246 0 2.5849 1.1594 2.5849 2.5847.0001 1.4251-1.1603 2.5847-2.5849 2.5846z"/><path id="_307632592" d="m13.6315 11.3068c-.9031 0-1.6386.7351-1.6386 1.6384.0001.9032.7355 1.6382 1.6386 1.6382s1.6385-.7349 1.6385-1.6382c0-.9034-.7355-1.6383-1.6385-1.6384zm0 4.223c-1.4245 0-2.585-1.1594-2.585-2.5846.0001-1.4253 1.1604-2.5847 2.585-2.5847 1.4256-.0001 2.5849 1.1595 2.5849 2.5847s-1.1594 2.5846-2.5849 2.5846z"/><path id="_307632280" d="m2.5849 15.52c-.903 0-1.6385.735-1.6385 1.6384 0 .9032.7354 1.6383 1.6385 1.6383.9031-.0001 1.6385-.735 1.6385-1.6383.0001-.9034-.7355-1.6383-1.6385-1.6384zm0 4.223c-1.4255 0-2.5849-1.1594-2.5849-2.5846 0-1.4253 1.1593-2.5847 2.5849-2.5847s2.5849 1.1594 2.5849 2.5847c.0001 1.4251-1.1593 2.5847-2.5849 2.5846z"/><path id="_307632688" d="m19.4451 28.6202 2.2291 3.2897 2.23-3.2897-2.23-3.2896zm2.2291 4.6065c-.1568 0-.3037-.0777-.3915-.2077l-2.8007-4.1333c-.1085-.1602-.1086-.3706-.0001-.5309l2.8008-4.1331c.0878-.13.2346-.2078.3914-.2078.1578-.0001.3046.0778.3924.2078l2.8008 4.1331c.1085.1603.1084.3707 0 .531l-2.8007 4.1332c-.0878.1299-.2348.2078-.3924.2077z"/><path id="_307632352" d="m31.5298 27.1558c-.8074 0-1.464.657-1.464 1.4645s.6565 1.4646 1.4639 1.4646c.8075 0 1.465-.657 1.465-1.4646.0001-.8076-.6576-1.4645-1.4649-1.4645zm0 3.8755c-1.3289 0-2.4105-1.0816-2.4105-2.411.0001-1.3294 1.0815-2.4109 2.4104-2.4109 1.33 0 2.4114 1.0815 2.4114 2.4109.0001 1.3294-1.0815 2.411-2.4113 2.411z"/><path id="_307632544" d="m11.8195 27.1558c-.8084 0-1.465.657-1.465 1.4645s.6565 1.4646 1.4649 1.4646c.8075 0 1.464-.657 1.464-1.4646.0001-.8076-.6565-1.4645-1.4639-1.4645zm0 3.8755c-1.3299 0-2.4115-1.0816-2.4115-2.411s1.0815-2.4109 2.4114-2.4109c1.329 0 2.4105 1.0815 2.4105 2.4109s-1.0815 2.411-2.4104 2.411z"/><path id="_307631728" d="m6.0177 36.0052c-.352 0-.6389.2867-.6389.6389v2.3179c0 .6772.5511 1.2293 1.2294 1.2293h30.1329c.6782 0 1.2293-.552 1.2293-1.2293v-2.3083c0-.3576-.2909-.6484-.6487-.6484l-31.304-.0001zm30.7234 5.1326h-30.1329c-1.1998 0-2.1758-.976-2.1758-2.1758v-2.3179c0-.8742.7108-1.5852 1.5853-1.5852l31.304-.0001c.8794 0 1.5951.7156 1.5951 1.595l.0001 2.3082c0 1.1998-.9761 2.1758-2.1758 2.1758z"/><path id="_307631656" d="m22.1315 38.5713h-.9138c-.2612 0-.4732-.2119-.4732-.4732 0-.2614.2119-.4732.4731-.4732l.9139-.0001c.2614 0 .4732.2119.4732.4733.0001.2613-.2119.4733-.4732.4732z"/><path id="_307632064" d="m27.3418 38.5713h-.9138c-.2613 0-.4733-.2119-.4733-.4732 0-.2614.212-.4732.4732-.4732l.9139-.0001c.2614 0 .4732.2119.4732.4733.0001.2613-.2119.4733-.4732.4732z"/><path id="_307631800" d="m32.5531 38.5713h-.9139c-.2613 0-.4732-.2119-.4732-.4732 0-.2614.2119-.4732.4732-.4732l.9139-.0001c.2612 0 .4732.2119.4732.4733 0 .2613-.212.4733-.4732.4732z"/><path id="_307631704" d="m16.9204 38.5713h-.9139c-.2613 0-.4733-.2119-.4733-.4732 0-.2614.212-.4732.4732-.4732l.914-.0001c.2612 0 .4731.2119.4731.4733 0 .2613-.212.4733-.4731.4732z"/><path id="_307631752" d="m11.7101 38.5713h-.9139c-.2613 0-.4733-.2119-.4733-.4732 0-.2614.212-.4732.4732-.4732l.914-.0001c.2613 0 .4731.2119.4731.4733.0001.2613-.2119.4733-.4731.4732z"/></g></g></svg>