<svg id="Layer_1" height="512" viewBox="0 0 50 50" width="512" xmlns="http://www.w3.org/2000/svg"><g><g><g><path d="m39.4 9.3h-17.8c-.4 0-.8-.3-.8-.8s.3-.8.8-.8h17.8c.4 0 .8.3.8.8s-.4.8-.8.8z" fill="rgb(0,0,0)"/></g><g><g><g><path d="m30.5 18.1h-17.8c-.3 0-.6-.2-.7-.5s-.1-.6.2-.8l8.9-8.8c.3-.3.8-.3 1.1 0l8.9 8.9c.2.2.3.5.2.8-.2.3-.5.4-.8.4zm-16-1.5h14.2l-7.1-7.1z" fill="rgb(0,0,0)"/></g><g><path d="m48.2 18.1h-17.7c-.3 0-.6-.2-.7-.5s-.1-.6.2-.8l8.9-8.8c.1-.1.3-.2.5-.2s.4.1.5.2l8.8 8.9c.2.2.3.5.2.8s-.4.4-.7.4zm-15.9-1.5h14.1l-7-7.1z" fill="rgb(0,0,0)"/></g></g><g><path d="m39.4 18.1h-17.8c-.3 0-.6-.2-.7-.5s-.1-.6.2-.8l8.9-8.8c.3-.3.8-.3 1.1 0l8.9 8.9c.2.2.3.5.2.8-.2.3-.5.4-.8.4zm-16-1.5h14.2l-7.1-7.1z" fill="rgb(0,0,0)"/></g><g><path d="m30.5 48.8c-.3 0-.5-.1-.6-.4l-17.8-30.6c-.2-.4-.1-.8.3-1s.8-.1 1 .3l17.1 29.6 17.1-29.7c.2-.4.7-.5 1-.3.4.2.5.7.3 1l-17.8 30.8c-.1.2-.3.3-.6.3z" fill="rgb(0,0,0)"/></g><g><path d="m30.5 48.8c-.3 0-.6-.2-.7-.5l-8.9-30.7c-.1-.4.1-.8.5-.9s.8.1.9.5l8.2 28.2 8.2-28.2c.1-.4.5-.6.9-.5s.6.5.5.9l-8.9 30.7c-.1.3-.4.5-.7.5z" fill="rgb(0,0,0)"/></g><g><path d="m30.5 48.8c-.4 0-.8-.3-.8-.8v-30.6c0-.4.3-.8.8-.8s.8.3.8.8v30.7c0 .4-.4.7-.8.7z" fill="rgb(0,0,0)"/></g></g></g><g><g><path d="m7.5 10.1c-.3 0-.6-.2-.7-.5l-.6-1.8c-.1-.3-.5-.7-.8-.8l-1.8-.6c-.3-.1-.6-.4-.6-.7s.3-.6.6-.7l1.8-.6c.4-.1.7-.4.8-.8l.6-1.8c.1-.3.4-.5.7-.5s.6.2.7.5l.6 1.8c.1.4.4.7.8.8l1.9.6c.3.1.5.4.5.7s-.2.6-.5.7l-1.8.6c-.3.1-.7.5-.8.8l-.7 1.9c-.1.3-.4.4-.7.4zm-1.4-4.4c.7.3 1.2.8 1.4 1.5.3-.6.8-1.2 1.4-1.5-.6-.3-1.1-.8-1.4-1.4-.3.6-.8 1.1-1.4 1.4z" fill="rgb(0,0,0)"/></g><g><path d="m12 13.3c-.3 0-.6-.2-.7-.5l-.4-1.2c0-.1-.2-.3-.5-.4l-1.1-.4c-.3-.2-.5-.5-.5-.8s.2-.6.5-.7l1.2-.4c.1 0 .3-.2.5-.5l.4-1c0-.4.3-.6.6-.5.3 0 .6.2.7.5l.4 1.2c0 .1.2.3.5.5l1 .4c.3.1.5.4.5.7s-.2.6-.5.7l-1.2.4c-.1 0-.3.2-.4.5l-.3 1c-.1.2-.3.4-.7.5zm-.5-3.3c.2.1.4.3.5.5.1-.2.3-.3.4-.4-.2-.2-.4-.3-.5-.5-.1.1-.2.3-.4.4z" fill="rgb(0,0,0)"/></g><g><path d="m5 17c-.3 0-.6-.2-.7-.5l-.5-1.6c-.1-.1-.3-.6-.7-.7l-1.5-.4c-.4-.2-.6-.4-.6-.8 0-.3.2-.6.5-.7l1.6-.5c.1-.1.6-.3.7-.7l.5-1.6c.1-.3.4-.5.7-.5s.6.2.7.5l.5 1.6c.1.1.3.6.7.7l1.6.5c.3.1.5.4.5.7s-.2.6-.5.7l-1.6.5c-.1.1-.6.3-.7.7l-.5 1.5c-.1.3-.4.6-.7.6zm-.9-4.1c.4.2.7.6 1 1 .2-.4.6-.7 1-1-.4-.2-.8-.6-1-1-.3.5-.6.8-1 1z" fill="rgb(0,0,0)"/></g></g></g></svg>