<svg xmlns="http://www.w3.org/2000/svg" version="1.1" xmlns:xlink="http://www.w3.org/1999/xlink" width="512" height="512" x="0" y="0" viewBox="0 0 75 75" style="enable-background:new 0 0 512 512" xml:space="preserve" class=""><g><path d="m54.51 54.04-.48-1.75c-1.1-3.99-1.93-4.82-5.92-5.92l-1.75-.48 1.75-.48c3.99-1.1 4.82-1.93 5.92-5.92l.48-1.75.48 1.75c1.1 3.99 1.93 4.82 5.92 5.92l1.75.48-1.75.48c-3.99 1.1-4.82 1.93-5.92 5.92zm-4.56-8.15c2.6.9 3.66 1.96 4.56 4.56.9-2.6 1.96-3.66 4.56-4.56-2.6-.9-3.66-1.96-4.56-4.56-.9 2.6-1.96 3.66-4.56 4.56zM40.54 25.62l-.48-1.75c-1.1-3.99-1.93-4.82-5.92-5.92l-1.75-.48 1.75-.48c3.99-1.1 4.82-1.93 5.92-5.92l.48-1.75.48 1.75c1.1 3.99 1.93 4.82 5.92 5.92l1.75.48-1.75.48c-3.99 1.1-4.82 1.93-5.92 5.92zm-4.56-8.15c2.6.9 3.66 1.96 4.56 4.56.9-2.6 1.96-3.66 4.56-4.56-2.6-.9-3.66-1.96-4.56-4.56-.9 2.6-1.96 3.66-4.56 4.56zM20.82 61l-.48-1.75c-1.1-3.99-1.93-4.82-5.92-5.92l-1.74-.48 1.74-.48c3.99-1.1 4.82-1.93 5.92-5.92l.48-1.75.48 1.75c1.1 3.99 1.93 4.82 5.92 5.92l1.74.48-1.74.48c-3.99 1.1-4.82 1.93-5.92 5.92zm-4.56-8.15c2.6.9 3.66 1.96 4.56 4.56.9-2.6 1.96-3.66 4.56-4.56-2.6-.9-3.66-1.96-4.56-4.56-.9 2.6-1.96 3.66-4.56 4.56zM34.71 49.33c-6.16 0-11.17-5.01-11.17-11.17s5.01-11.17 11.17-11.17S45.88 32 45.88 38.16s-5.01 11.17-11.17 11.17zm0-21.33c-5.61 0-10.17 4.56-10.17 10.17s4.56 10.17 10.17 10.17 10.17-4.56 10.17-10.17S40.32 28 34.71 28z" fill="#000000" opacity="1" data-original="#000000"></path><path d="M34.71 46.39c-.28 0-.5-.22-.5-.5s.22-.5.5-.5c3.99 0 7.23-3.24 7.23-7.23 0-.28.22-.5.5-.5s.5.22.5.5c0 4.54-3.69 8.23-8.23 8.23zM54.51 35.4c-3.93 0-7.12-3.2-7.12-7.12s3.2-7.12 7.12-7.12 7.12 3.2 7.12 7.12-3.2 7.12-7.12 7.12zm0-13.25c-3.38 0-6.12 2.75-6.12 6.12s2.75 6.12 6.12 6.12 6.12-2.75 6.12-6.12-2.75-6.12-6.12-6.12z" fill="#000000" opacity="1" data-original="#000000"></path><path d="M54.51 33.57c-.28 0-.5-.22-.5-.5s.22-.5.5-.5c2.37 0 4.3-1.93 4.3-4.3 0-.28.22-.5.5-.5s.5.22.5.5c0 2.92-2.38 5.3-5.3 5.3zM40.34 62.21c-2.79 0-5.05-2.27-5.05-5.05s2.27-5.05 5.05-5.05 5.05 2.27 5.05 5.05-2.27 5.05-5.05 5.05zm0-9.11c-2.24 0-4.05 1.82-4.05 4.05s1.82 4.05 4.05 4.05 4.05-1.82 4.05-4.05-1.82-4.05-4.05-4.05z" fill="#000000" opacity="1" data-original="#000000"></path><path d="M40.34 60.96c-.28 0-.5-.22-.5-.5s.22-.5.5-.5c1.54 0 2.8-1.26 2.8-2.8 0-.28.22-.5.5-.5s.5.22.5.5c0 2.1-1.71 3.8-3.8 3.8zM18.42 29.07c-2.79 0-5.05-2.27-5.05-5.05s2.27-5.05 5.05-5.05 5.05 2.27 5.05 5.05-2.27 5.05-5.05 5.05zm0-9.11c-2.24 0-4.05 1.82-4.05 4.05s1.82 4.05 4.05 4.05 4.05-1.82 4.05-4.05-1.82-4.05-4.05-4.05z" fill="#000000" opacity="1" data-original="#000000"></path><path d="M18.42 27.82c-.28 0-.5-.22-.5-.5s.22-.5.5-.5c1.54 0 2.8-1.26 2.8-2.8 0-.28.22-.5.5-.5s.5.22.5.5c0 2.1-1.71 3.8-3.8 3.8z" fill="#000000" opacity="1" data-original="#000000"></path></g></svg>